<svg xmlns="http://www.w3.org/2000/svg" xmlns:xlink="http://www.w3.org/1999/xlink" version="1.1" x="0px" y="0px" viewBox="0 0 48 60" enable-background="new 0 0 48 48" xml:space="preserve"><path d="M30.331,27.803c-0.069-0.006-0.14-0.004-0.208-0.011c-0.361-3.709-0.689-7.467-0.969-11.197  c-0.071-0.95-0.584-1.76-1.312-2.269c-0.25-1.041-0.319-2.099-0.245-3.14c0.506,2.084,2.244,3.745,4.492,4.034  c-0.482,0.625-0.9,1.297-1.217,2.025c-0.496,1.144-0.646,2.396-0.434,3.626c0.076,0.446,0.301,0.862,0.635,1.172  c0.306,0.284,0.557,0.616,0.746,0.986c0.436,0.848,0.515,1.815,0.223,2.724C31.758,26.641,31.148,27.362,30.331,27.803z"/><path d="M30.08,5.165c2.999,0.546,5.219,3.017,5.42,6.065c-0.333,1.188-0.93,2.315-1.727,3.262  c-0.187,0.219-0.457,0.353-0.742,0.368c-0.291,0.013-0.582,0.005-0.87-0.031c-2.687-0.336-4.599-2.785-4.28-5.47  C28.271,7.829,29.016,6.391,30.08,5.165z"/><path d="M37.521,4.707c0.492-0.366,1.102-0.521,1.705-0.434c0.41,0.059,0.769,0.329,0.934,0.709c0.352,0.803,0.55,1.654,0.594,2.555  c0.104,0.669,0.048,1.364-0.156,2.011c-0.008,0.021-0.011,0.042-0.011,0.063c0.021,1.348-0.007,2.709-0.08,4.059  c0.072,3.993-0.592,7.917-1.976,11.662c-0.03,0.084-0.065,0.167-0.104,0.247c-0.681,1.422-2.394,2.021-3.811,1.341  c-0.733-0.353-1.463-0.736-2.174-1.139c0.279-0.943,0.218-1.99-0.268-2.934c-0.211-0.412-0.49-0.779-0.83-1.097  c-0.269-0.25-0.449-0.586-0.512-0.946c-0.13-0.752-0.102-1.511,0.055-2.247c1.668,1.176,3.135,2.591,4.352,4.229  c0.039,0.053,0.101,0.081,0.16,0.081c0.043,0,0.084-0.014,0.119-0.04c0.08-0.06,0.092-0.162,0.049-0.247  c0.013-0.022,0.031-0.04,0.033-0.066c0.172-2.411,0.797-4.728,1.817-6.91c0.091,0.333,0.205,0.658,0.353,0.972  c0.035,0.072,0.105,0.114,0.182,0.114c0.027,0,0.058-0.007,0.086-0.021c0.1-0.047,0.143-0.166,0.095-0.267  c-0.515-1.088-0.661-2.335-0.416-3.515c0.001-0.004-0.002-0.007-0.002-0.01c0.5-2.505,0.127-5.05-0.95-7.26  C36.97,5.273,37.223,4.962,37.521,4.707z"/><path d="M32.846,1.626c0.012,0.009,0.024,0.005,0.036,0.011c1.481,1.053,2.655,2.437,3.451,4.007  c0.004,0.037,0.021,0.065,0.045,0.096c1.078,2.177,1.446,4.694,0.929,7.169c-0.003,0.01,0.004,0.017,0.004,0.024  c-0.123,0.659-0.129,1.332-0.027,1.993c-1.141,2.271-1.816,4.703-2.04,7.229c-1.212-1.546-2.636-2.9-4.257-4.021  c0.07-0.246,0.151-0.49,0.254-0.728c0.338-0.777,0.783-1.499,1.316-2.152c0.07,0.003,0.141,0.014,0.211,0.014  c0.096,0,0.189-0.003,0.285-0.008c0.395-0.021,0.768-0.206,1.025-0.51c0.841-0.997,1.469-2.188,1.814-3.445  c0.006-0.021,0.01-0.043,0.008-0.064c-0.194-3.177-2.451-5.777-5.535-6.435c0.429-0.599,0.638-1.318,0.594-2.063  c-0.053-0.859-0.436-1.647-1.078-2.219c-0.002-0.003-0.005-0.004-0.007-0.006C30.923,0.564,31.967,0.918,32.846,1.626z"/><path d="M19.411,19.33c-0.754,0.459-1.611,0.702-2.481,0.713c3.297-1.36,5.629-4.413,6.04-8.006c0.313-2.742,0.926-5.46,1.819-8.076  c0.193-0.565,0.48-1.089,0.855-1.555c0.932-1.157,2.27-1.788,3.646-1.882c0.016,0.031,0.025,0.065,0.057,0.088  c0.094,0.063,0.184,0.133,0.268,0.209c0.564,0.501,0.9,1.19,0.945,1.943s-0.207,1.479-0.707,2.042  c-1.151,1.297-1.949,2.833-2.365,4.466c0,0.004-0.004,0.005-0.004,0.008s0,0.006,0,0.008c-0.392,1.545-0.424,3.176-0.096,4.775  c-0.457-0.216-0.969-0.329-1.507-0.285c-0.807,0.061-1.542,0.43-2.071,1.037c-0.764,0.875-1.479,1.793-2.147,2.745  C20.972,18.22,20.213,18.816,19.411,19.33z"/><path d="M19.097,47.482h-6.262c0.225-3.182,0.231-6.397,0.016-9.568c-0.044-0.646,0.206-1.27,0.686-1.707  c1.097-1.002,2.255-1.912,3.457-2.748c-0.007,0.03-0.02,0.059-0.011,0.09C18.307,38.079,19.018,42.766,19.097,47.482z"/><path d="M45.072,29.531c-1.283,0.552-2.657,0.838-4.041,0.811c-0.684-0.007-1.354-0.201-1.936-0.563  c-0.498-0.31-1.13-0.327-1.645-0.041c-3.04,1.68-6.482,2.567-9.956,2.571c-0.478,0-0.892-0.322-1.011-0.783  c-0.219-0.854-0.465-1.704-0.693-2.557c0-0.021,0.012-0.043,0.005-0.064c-0.006-0.018-0.022-0.023-0.033-0.039  c-0.819-3.034-1.688-6.063-2.635-9.034c-0.034-0.105-0.147-0.167-0.251-0.13c-0.105,0.033-0.163,0.146-0.13,0.251  c0.931,2.925,1.786,5.907,2.597,8.894c-4.507,1.487-8.57,3.861-12.078,7.066c-0.569,0.521-0.866,1.26-0.813,2.029  c0.216,3.16,0.208,6.369-0.018,9.541H4.434c-0.158-2.463-0.343-4.975-0.547-7.467c-0.102-1.235-0.354-2.459-0.753-3.639  c-0.062-0.175-0.113-0.353-0.16-0.531c-0.561-2.117-0.262-4.328,0.84-6.223c1.103-1.895,2.875-3.244,4.993-3.806  c0.107-0.028,0.171-0.138,0.144-0.244S8.81,25.398,8.706,25.43c-1.246,0.33-2.371,0.929-3.329,1.733  c0.005-0.015,0.008-0.032,0.014-0.047c0.599-1.653,1.807-2.976,3.4-3.719c1.592-0.745,3.379-0.826,5.034-0.226  c2.415,0.874,5.06-0.123,6.292-2.374c1.119-2.043,2.465-3.969,3.994-5.723c0.461-0.527,1.101-0.849,1.801-0.901  c1.476-0.105,2.734,0.99,2.844,2.447c0.282,3.778,0.614,7.585,0.98,11.34c0,0.002-0.002,0.002-0.002,0.004  c0,0.004,0.004,0.008,0.004,0.012c0.033,0.33,0.061,0.668,0.094,0.998c0.011,0.104,0.098,0.181,0.199,0.181  c0.007,0,0.013-0.001,0.02-0.001c0.11-0.012,0.189-0.109,0.18-0.219c-0.023-0.246-0.045-0.497-0.068-0.743  c0.051,0.003,0.102,0.003,0.152,0.007c0.019,0.005,0.035,0.016,0.054,0.016c0.015,0,0.028-0.008,0.042-0.012  c2.938,0.198,5.883,0.059,8.763-0.396c0.031,0.021,0.063,0.043,0.104,0.043c0.011,0,0.041-0.004,0.053-0.006  c0.055-0.01,0.102-0.039,0.133-0.082c0.251-0.041,0.506-0.067,0.756-0.114c0.016,0,0.036-0.003,0.051-0.007  c0.569-0.131,1.146-0.28,1.711-0.444c0.215-0.063,0.445-0.047,0.649,0.042c0.938,0.409,1.797,0.97,2.552,1.664  c0.04,0.037,0.071,0.081,0.092,0.13C45.354,29.225,45.264,29.449,45.072,29.531z"/><text x="0" y="63" fill="#000000" font-size="5px" font-weight="bold" font-family="'Helvetica Neue', Helvetica, Arial-Unicode, Arial, Sans-serif">Created by Pham Duy Phuong Hung</text><text x="0" y="68" fill="#000000" font-size="5px" font-weight="bold" font-family="'Helvetica Neue', Helvetica, Arial-Unicode, Arial, Sans-serif">from the Noun Project</text></svg>